<svg height="480pt" viewBox="0 0 480 480" width="480pt" xmlns="http://www.w3.org/2000/svg"><path d="m195.007812 368.382812c-54.496093-19.160156-90.972656-70.617187-91.007812-128.382812 0-4.417969-3.582031-8-8-8s-8 3.582031-8 8c.042969 64.558594 40.808594 122.070312 101.710938 143.488281.851562.296875 1.746093.449219 2.648437.449219 3.902344.003906 7.242187-2.8125 7.894531-6.660156.65625-3.847656-1.5625-7.605469-5.246094-8.894532zm0 0"/><path d="m240 376c-5.046875.011719-10.085938-.257812-15.105469-.800781-4.390625-.484375-8.34375 2.679687-8.832031 7.074219-.484375 4.390624 2.683594 8.34375 7.074219 8.832031 5.601562.605469 11.230469.90625 16.863281.894531 4.417969 0 8-3.582031 8-8s-3.582031-8-8-8zm0 0"/><path d="m290.769531 96.6875c-2.707031-.992188-5.734375-.457031-7.933593 1.40625-2.195313 1.859375-3.222657 4.757812-2.6875 7.589844.535156 2.832031 2.550781 5.152344 5.277343 6.085937 54.253907 19.304688 90.515625 70.640625 90.574219 128.230469 0 4.417969 3.582031 8 8 8s8-3.582031 8-8c-.0625-64.363281-40.589844-121.738281-101.230469-143.3125zm0 0"/><path d="m240 104c5.222656 0 10.441406.296875 15.632812.886719.300782.03125.605469.050781.910157.050781 4.226562-.023438 7.707031-3.328125 7.949219-7.546875.238281-4.222656-2.847657-7.898437-7.042969-8.398437-5.792969-.660157-11.621094-.988282-17.449219-.992188-4.417969 0-8 3.582031-8 8s3.582031 8 8 8zm0 0"/><path d="m240 168c17.671875 0 32 14.328125 32 32 0 4.417969 3.582031 8 8 8s8-3.582031 8-8c-.042969-23.398438-16.933594-43.359375-40-47.28125v-8.71875c0-4.417969-3.582031-8-8-8s-8 3.582031-8 8v8.71875c-24.472656 4.285156-41.632812 26.539062-39.554688 51.296875 2.078126 24.761719 22.710938 43.839844 47.554688 43.984375 17.671875 0 32 14.328125 32 32s-14.328125 32-32 32-32-14.328125-32-32c0-4.417969-3.582031-8-8-8s-8 3.582031-8 8c.042969 23.398438 16.933594 43.359375 40 47.28125v8.71875c0 4.417969 3.582031 8 8 8s8-3.582031 8-8v-8.71875c24.472656-4.285156 41.632812-26.539062 39.554688-51.296875-2.078126-24.761719-22.710938-43.839844-47.554688-43.984375-17.671875 0-32-14.328125-32-32s14.328125-32 32-32zm0 0"/><path d="m472 184h-56.734375c-3.117187-9.757812-7.042969-19.234375-11.738281-28.335938l40.121094-40.121093c3.121093-3.121094 3.121093-8.1875 0-11.3125l-67.878907-67.878907c-3.175781-3-8.140625-3-11.3125 0l-40.121093 40.121094c-9.101563-4.699218-18.578126-8.625-28.335938-11.738281v-56.734375c0-4.417969-3.582031-8-8-8h-96c-4.417969 0-8 3.582031-8 8v56.734375c-9.757812 3.113281-19.234375 7.039063-28.335938 11.738281l-40.121093-40.121094c-3.121094-3.121093-8.1875-3.121093-11.3125 0l-67.878907 67.878907c-3.121093 3.125-3.121093 8.191406 0 11.3125l40.121094 40.121093c-4.695312 9.101563-8.621094 18.578126-11.738281 28.335938h-56.734375c-4.417969 0-8 3.582031-8 8v96c0 4.417969 3.582031 8 8 8h56.734375c3.117187 9.757812 7.042969 19.234375 11.738281 28.335938l-40.121094 40.121093c-3.121093 3.121094-3.121093 8.1875 0 11.3125l67.878907 67.878907c3.125 3.121093 8.191406 3.121093 11.3125 0l40.121093-40.121094c9.101563 4.699218 18.578126 8.625 28.335938 11.738281v56.734375c0 4.417969 3.582031 8 8 8h96c4.417969 0 8-3.582031 8-8v-56.734375c9.757812-3.113281 19.234375-7.039063 28.335938-11.738281l40.121093 40.121094c3.121094 3.121093 8.1875 3.121093 11.3125 0l67.878907-67.878907c3.121093-3.125 3.121093-8.191406 0-11.3125l-40.121094-40.121093c4.695312-9.101563 8.621094-18.578126 11.738281-28.335938h56.734375c4.417969 0 8-3.582031 8-8v-96c0-4.417969-3.582031-8-8-8zm-8 96h-54.679688c-3.578124 0-6.722656 2.378906-7.695312 5.824219-3.558594 12.558593-8.570312 24.660156-14.9375 36.054687-1.765625 3.136719-1.222656 7.0625 1.328125 9.601563l38.664063 38.671875-56.566407 56.558594-38.664062-38.710938c-2.539063-2.546875-6.46875-3.089844-9.601563-1.320312-11.382812 6.363281-23.476562 11.371093-36.023437 14.921874-3.445313.972657-5.824219 4.113282-5.824219 7.695313v54.703125h-80v-54.679688c0-3.578124-2.378906-6.722656-5.824219-7.695312-12.558593-3.554688-24.660156-8.566406-36.054687-14.9375-3.132813-1.769531-7.0625-1.226562-9.601563 1.320312l-38.664062 38.664063-56.566407-56.558594 38.710938-38.671875c2.550781-2.539062 3.09375-6.46875 1.328125-9.601562-6.359375-11.382813-11.371094-23.472656-14.929687-36.015625-.972657-3.453125-4.128907-5.832031-7.71875-5.824219h-54.679688v-80h54.679688c3.578124 0 6.722656-2.378906 7.695312-5.824219 3.558594-12.558593 8.570312-24.660156 14.9375-36.054687 1.765625-3.136719 1.222656-7.0625-1.328125-9.601563l-38.664063-38.632812 56.566407-56.566407 38.664062 38.679688c2.539063 2.546875 6.46875 3.089844 9.601563 1.320312 11.382812-6.363281 23.476562-11.371093 36.023437-14.921874 3.453125-.972657 5.832031-4.128907 5.824219-7.71875v-54.679688h80v54.679688c0 3.578124 2.378906 6.722656 5.824219 7.695312 12.558593 3.554688 24.660156 8.566406 36.054687 14.9375 3.132813 1.769531 7.0625 1.226562 9.601563-1.320312l38.664062-38.671876 56.566407 56.566407-38.710938 38.671875c-2.550781 2.539062-3.09375 6.46875-1.328125 9.601562 6.359375 11.382813 11.371094 23.472656 14.929687 36.015625.972657 3.445313 4.113282 5.824219 7.695313 5.824219h54.703125zm0 0"/></svg>