<?xml version="1.0"?>
<svg xmlns="http://www.w3.org/2000/svg" viewBox="0 0 64 64" width="512" height="512"><g id="shopping_online-laptop-money-global-worldwide-exchage" data-name="shopping online-laptop-money-global-worldwide-exchage"><path d="M54,52H53V29a5,5,0,0,0-5-5H16a5,5,0,0,0-5,5V52H10a1,1,0,0,0-1,1v4a5,5,0,0,0,5,5H50a5,5,0,0,0,5-5V53A1,1,0,0,0,54,52ZM13,29a3.009,3.009,0,0,1,3-3H48a3.009,3.009,0,0,1,3,3V52H49V30a2.006,2.006,0,0,0-2-2H17a2.006,2.006,0,0,0-2,2V52H13Zm4,23V30H47V52Zm21,2v1a1,1,0,0,1-1,1H27a1,1,0,0,1-1-1V54Zm15,3a3.009,3.009,0,0,1-3,3H14a3.009,3.009,0,0,1-3-3V54H24v1a3.009,3.009,0,0,0,3,3H37a3.009,3.009,0,0,0,3-3V54H53Z"/><path d="M40,36.92A1.01,1.01,0,0,0,39,36H37V35a3.009,3.009,0,0,0-3-3H30a3.009,3.009,0,0,0-3,3v1H25a1.01,1.01,0,0,0-1,.92l-1,12a1.013,1.013,0,0,0,.26.76A1.029,1.029,0,0,0,24,50H40a1.029,1.029,0,0,0,.74-.32,1.013,1.013,0,0,0,.26-.76ZM27,48H25.09l.83-10H27Zm2-13a1,1,0,0,1,1-1h4a1,1,0,0,1,1,1v1H29Zm0,13V38h9.08l.83,10Z"/><path d="M12,2A10,10,0,1,0,22,12,10.016,10.016,0,0,0,12,2Zm0,18a8,8,0,1,1,8-8A8.011,8.011,0,0,1,12,20Z"/><path d="M52,2A10,10,0,1,0,62,12,10.016,10.016,0,0,0,52,2Zm7.93,9H56.98a19.563,19.563,0,0,0-.39-3.11,10.226,10.226,0,0,0,1.55-1A7.865,7.865,0,0,1,59.93,11ZM56.65,5.5a7.493,7.493,0,0,1-.63.41,10.25,10.25,0,0,0-.46-1.06A8.038,8.038,0,0,1,56.65,5.5ZM52,4c.69,0,1.54.98,2.17,2.7A8.3,8.3,0,0,1,52,7a8.3,8.3,0,0,1-2.17-.3C50.46,4.98,51.31,4,52,4ZM45.86,6.89a10.226,10.226,0,0,0,1.55,1A19.563,19.563,0,0,0,47.02,11H44.07A7.865,7.865,0,0,1,45.86,6.89ZM44.07,13h2.95a19.563,19.563,0,0,0,.39,3.11,10.226,10.226,0,0,0-1.55,1A7.865,7.865,0,0,1,44.07,13Zm3.28,5.5a7.493,7.493,0,0,1,.63-.41,10.25,10.25,0,0,0,.46,1.06A8.038,8.038,0,0,1,47.35,18.5Zm.63-12.59a7.493,7.493,0,0,1-.63-.41,8.038,8.038,0,0,1,1.09-.65A10.25,10.25,0,0,0,47.98,5.91ZM52,20c-.69,0-1.54-.98-2.17-2.7a8,8,0,0,1,4.34,0C53.54,19.02,52.69,20,52,20Zm2.69-4.63a9.964,9.964,0,0,0-5.38,0A16.4,16.4,0,0,1,49.03,13h5.94A16.4,16.4,0,0,1,54.69,15.37ZM49.03,11a16.4,16.4,0,0,1,.28-2.37A10.094,10.094,0,0,0,52,9a10.094,10.094,0,0,0,2.69-.37A16.4,16.4,0,0,1,54.97,11Zm6.53,8.15a10.25,10.25,0,0,0,.46-1.06,7.493,7.493,0,0,1,.63.41A8.038,8.038,0,0,1,55.56,19.15Zm2.58-2.04a10.226,10.226,0,0,0-1.55-1A19.563,19.563,0,0,0,56.98,13h2.95A7.865,7.865,0,0,1,58.14,17.11Z"/><path d="M34.293,10.293l1.414,1.414,4-4a1,1,0,0,0,0-1.414l-4-4L34.293,3.707,36.586,6H25V8H36.586Z"/><path d="M28.293,19.707l1.414-1.414L27.414,16H39V14H27.414l2.293-2.293-1.414-1.414-4,4a1,1,0,0,0,0,1.414Z"/><path d="M15,14a3.01,3.01,0,0,1-2,2.82V18H11V16.82A3.01,3.01,0,0,1,9,14h2a1,1,0,1,0,1-1,3,3,0,0,1-1-5.82V6h2V7.18A3.01,3.01,0,0,1,15,10H13a1,1,0,1,0-1,1A3.009,3.009,0,0,1,15,14Z"/><path d="M8.832,40.445l-2-3-1.664,1.11L6.132,40H4V24H2V41a1,1,0,0,0,1,1H6.132l-.964,1.445,1.664,1.11,2-3A1,1,0,0,0,8.832,40.445Z"/><path d="M60,40H57.868l.964-1.445-1.664-1.11-2,3a1,1,0,0,0,0,1.11l2,3,1.664-1.11L57.868,42H61a1,1,0,0,0,1-1V24H60Z"/></g></svg>
