<svg height="512" viewBox="0 0 64 64" width="512" xmlns="http://www.w3.org/2000/svg"><g id="Mail-4" data-name="Mail"><path d="m44 16.414v11.586h2v-11.586l3.95 3.95 1.414-1.414-5.657-5.657a1 1 0 0 0 -1.414 0l-5.657 5.657 1.414 1.414z"/><path d="m62 21a16.989 16.989 0 0 0 -33.949-1h-21.051a5.006 5.006 0 0 0 -5 5v30a5.006 5.006 0 0 0 5 5h46a5.006 5.006 0 0 0 5-5v-23h-.062a16.914 16.914 0 0 0 4.062-11zm-17 17a16.914 16.914 0 0 0 11-4.062v17.194l-19.677-13.118 2.462-1.207a16.882 16.882 0 0 0 6.215 1.193zm0-32a15 15 0 1 1 -15 15 15.017 15.017 0 0 1 15-15zm-38 16h21.051a16.993 16.993 0 0 0 8.449 13.7l-6.486 3.179-26.014-13.546v-.333a3 3 0 0 1 3-3zm16.833 15.916-19.833 13.272v-23.6zm29.167 20.084h-46a3 3 0 0 1 -3-3v-1.406l21.856-14.625 3.682 1.918a1 1 0 0 0 .9.011l3.806-1.866 21.756 14.503v1.465a3 3 0 0 1 -3 3z"/><path d="m56 21h2a13.015 13.015 0 0 0 -13-13v2a11.013 11.013 0 0 1 11 11z"/><path d="m20 54h28v2h-28z"/><path d="m14 54h4v2h-4z"/><path d="m24 50h20v2h-20z"/><path d="m18 50h4v2h-4z"/></g></svg>