<svg height="1237.5pt" viewBox="0 0 1237.5 1237.5" width="1237.5pt" xmlns="http://www.w3.org/2000/svg"><g fill="#231f20"><path d="m1175.625 0h-1113.75c-34.175781 0-61.875 27.699219-61.875 61.875v742.5c0 34.175781 27.699219 61.875 61.875 61.875h350.625c56.929688.070312 103.054688 46.203125 103.125 103.125-.101562 56.914062-46.210938 103.023438-103.125 103.125-.269531 0-.492188.148438-.78125.164062-1.519531.117188-3.011719.417969-4.457031.890626-1.128907.214843-2.242188.527343-3.320313.929687-1.222656.640625-2.371094 1.414063-3.425781 2.308594-1.054687.652343-2.039063 1.414062-2.945313 2.265625-.777343.972656-1.472656 2.003906-2.066406 3.09375-.824218 1.167968-1.519531 2.425781-2.0625 3.753906-.101562.246094-.3125.429688-.414062.699219l-41.246094 123.75c-3.601562 10.808593 2.242188 22.488281 13.046875 26.089843 2.070313.6875 4.238281 1.046876 6.421875 1.054688h495c11.390625.003906 20.625-9.226562 20.628906-20.621094 0-2.214844-.355468-4.417968-1.058594-6.523437l-41.246093-123.75c0-.269531-.3125-.453125-.414063-.699219-.542968-1.328125-1.234375-2.585938-2.058594-3.753906-.597656-1.089844-1.289062-2.121094-2.066406-3.09375-.925781-.859375-1.925781-1.632813-2.988281-2.308594-1.046875-.859375-2.167969-1.613281-3.367187-2.25-1.097657-.40625-2.230469-.726562-3.382813-.945312-1.433594-.472657-2.921875-.773438-4.433594-.890626-.269531 0-.492187-.164062-.761719-.164062-56.914062-.101562-103.023437-46.210938-103.125-103.125.070313-56.921875 46.195313-103.054688 103.125-103.125h350.523438c34.175781 0 61.875-27.699219 61.875-61.875v-742.5c0-34.175781-27.699219-61.875-61.875-61.875zm-495 969.375c.078125 73.84375 55.8125 135.75 129.238281 143.570312l27.777344 83.304688h-437.78125l27.777344-83.304688c73.433593-7.820312 129.160156-69.726562 129.238281-143.570312.003906-38.835938-15.6875-76.03125-43.519531-103.125h210.789062c-27.832031 27.09375-43.523437 64.289062-43.519531 103.125zm515.625-165c0 11.390625-9.234375 20.625-20.625 20.625h-1113.75c-11.390625 0-20.625-9.234375-20.625-20.625v-61.875h1155zm-1155-103.125v-639.375c0-11.390625 9.234375-20.625 20.625-20.625h1113.75c11.390625 0 20.625 9.234375 20.625 20.625v639.375zm0 0"/><path d="m825 247.5c45.5625 0 82.5-36.9375 82.5-82.5 0-45.566406-36.9375-82.5-82.5-82.5s-82.5 36.933594-82.5 82.5c.070312 5.777344.761719 11.527344 2.0625 17.15625l-269.9375 134.972656c-15.570312-18.074218-38.265625-28.441406-62.125-28.378906-45.5625 0-82.5 36.9375-82.5 82.5 0 45.566406 36.9375 82.5 82.5 82.5 23.863281.070312 46.566406-10.296875 62.144531-28.378906l269.917969 134.972656c-1.300781 5.628906-1.992188 11.378906-2.0625 17.15625 0 45.566406 36.9375 82.5 82.5 82.5s82.5-36.933594 82.5-82.5c0-45.5625-36.9375-82.5-82.5-82.5-23.863281-.070312-46.566406 10.304688-62.144531 28.378906l-269.917969-134.964844c2.722656-11.28125 2.722656-23.046874 0-34.320312l269.917969-134.972656c15.578125 18.082031 38.277343 28.449218 62.144531 28.378906zm0-123.75c22.78125 0 41.25 18.46875 41.25 41.25 0 22.777344-18.46875 41.25-41.25 41.25-15.640625.070312-29.941406-8.796875-36.835938-22.832031-10.238281-20.273438-2.109374-45.011719 18.164063-55.253907 5.789063-2.921874 12.1875-4.433593 18.671875-4.414062zm-453.75 247.5c0-22.777344 18.46875-41.25 41.25-41.25 15.640625-.070312 29.941406 8.796875 36.835938 22.832031 5.914062 11.589844 5.914062 25.3125 0 36.898438-6.898438 14.023437-21.207032 22.867187-36.835938 22.769531-22.78125 0-41.25-18.46875-41.25-41.25zm416.953125 187.6875c6.917969-13.976562 21.203125-22.785156 36.796875-22.6875 22.90625-.101562 41.558594 18.390625 41.660156 41.292969.097656 22.90625-18.386718 41.558593-41.300781 41.660156-22.902344.097656-41.554687-18.386719-41.652344-41.292969-.03125-6.589844 1.511719-13.097656 4.496094-18.972656zm0 0"/></g></svg>